<svg width="1104" height="865" viewBox="0 0 1104 865" fill="none" xmlns="http://www.w3.org/2000/svg" xmlns:xlink="http://www.w3.org/1999/xlink">
<path d="M6.912 469V398.44H41.856V405.16H14.4V428.968H36.48V435.688H14.4V462.28H41.856V469H6.912ZM102.144 469V465.448C102.144 461.928 102.72 458.504 103.872 455.176C105.024 451.848 106.528 448.68 108.384 445.672L115.776 433.672L108.384 421.768C106.528 418.76 105.024 415.592 103.872 412.264C102.72 408.936 102.144 405.512 102.144 401.992V398.44H109.632V401.992C109.632 404.872 110.08 407.688 110.976 410.44C111.936 413.192 113.184 415.784 114.72 418.216L120 426.856L125.28 418.216C126.816 415.784 128.032 413.192 128.928 410.44C129.888 407.688 130.368 404.872 130.368 401.992V398.44H137.856V401.992C137.856 405.512 137.28 408.936 136.128 412.264C134.976 415.592 133.472 418.76 131.616 421.768L124.224 433.672L131.616 445.672C133.472 448.68 134.976 451.848 136.128 455.176C137.28 458.504 137.856 461.928 137.856 465.448V469H130.368V465.448C130.368 462.568 129.888 459.752 128.928 457C128.032 454.248 126.816 451.656 125.28 449.224L120 440.584L114.72 449.224C113.184 451.656 111.936 454.248 110.976 457C110.08 459.752 109.632 462.568 109.632 465.448V469H102.144ZM212.256 469V405.16H197.568V398.44H234.432V405.16H219.744V469H212.256ZM294.912 469V398.44H329.856V405.16H302.4V428.968H324.48V435.688H302.4V462.28H329.856V469H294.912ZM390.144 469V398.44H408.576C410.304 398.44 412 398.632 413.664 399.016C415.392 399.4 416.992 400.072 418.464 401.032C419.936 401.928 421.216 403.08 422.304 404.488C423.392 405.832 424.256 407.304 424.896 408.904C425.6 410.504 426.048 412.168 426.24 413.896C426.496 415.624 426.624 417.352 426.624 419.08C426.624 421.192 426.432 423.304 426.048 425.416C425.664 427.528 424.96 429.512 423.936 431.368C422.912 433.224 421.568 434.824 419.904 436.168C418.24 437.512 416.416 438.504 414.432 439.144C415.968 441.384 417.44 443.688 418.848 446.056C420.256 448.36 421.504 450.76 422.592 453.256C423.744 455.752 424.704 458.312 425.472 460.936C426.24 463.56 426.624 466.248 426.624 469H419.136C419.136 466.312 418.72 463.656 417.888 461.032C417.056 458.408 416 455.912 414.72 453.544C413.504 451.112 412.16 448.776 410.688 446.536C409.216 444.232 407.68 441.992 406.08 439.816H397.632V469H390.144ZM408.576 433.096C409.664 433.096 410.752 432.936 411.84 432.616C412.928 432.296 413.888 431.816 414.72 431.176C415.616 430.472 416.352 429.64 416.928 428.68C417.504 427.72 417.952 426.728 418.272 425.704C418.592 424.616 418.816 423.528 418.944 422.44C419.072 421.352 419.136 420.232 419.136 419.08C419.136 417.992 419.072 416.904 418.944 415.816C418.816 414.728 418.592 413.672 418.272 412.648C417.952 411.56 417.504 410.536 416.928 409.576C416.352 408.616 415.616 407.816 414.72 407.176C413.888 406.472 412.928 405.96 411.84 405.64C410.752 405.32 409.664 405.16 408.576 405.16H397.632V433.096H408.576ZM503.904 469.768C502.304 469.768 500.704 469.64 499.104 469.384C497.504 469.128 495.968 468.68 494.496 468.04C493.088 467.336 491.776 466.44 490.56 465.352C489.344 464.264 488.32 463.048 487.488 461.704C486.72 460.296 486.144 458.792 485.76 457.192C485.376 455.592 485.184 453.992 485.184 452.392V451.72H492.672V452.2C492.672 453.672 492.928 455.112 493.44 456.52C493.952 457.928 494.72 459.144 495.744 460.168C496.832 461.192 498.08 461.928 499.488 462.376C500.96 462.824 502.432 463.048 503.904 463.048C505.376 463.048 506.848 462.824 508.32 462.376C509.792 461.928 511.04 461.16 512.064 460.072C513.152 458.984 513.952 457.736 514.464 456.328C514.976 454.856 515.232 453.384 515.232 451.912C515.232 450.248 514.88 448.648 514.176 447.112C513.536 445.512 512.64 444.136 511.488 442.984C510.4 441.768 509.12 440.744 507.648 439.912C506.24 439.08 504.8 438.28 503.328 437.512C501.856 436.744 500.384 435.976 498.912 435.208C497.504 434.376 496.16 433.448 494.88 432.424C493.6 431.4 492.416 430.28 491.328 429.064C490.24 427.784 489.28 426.44 488.448 425.032C487.68 423.56 487.104 422.024 486.72 420.424C486.336 418.76 486.144 417.128 486.144 415.528C486.144 413.928 486.304 412.36 486.624 410.824C487.008 409.224 487.552 407.72 488.256 406.312C489.024 404.904 489.952 403.624 491.04 402.472C492.192 401.32 493.472 400.392 494.88 399.688C496.288 398.92 497.76 398.408 499.296 398.152C500.896 397.832 502.496 397.672 504.096 397.672C505.696 397.672 507.264 397.8 508.8 398.056C510.336 398.312 511.808 398.792 513.216 399.496C514.624 400.2 515.904 401.128 517.056 402.28C518.208 403.368 519.136 404.616 519.84 406.024C520.608 407.368 521.152 408.808 521.472 410.344C521.856 411.88 522.048 413.448 522.048 415.048V415.72H514.56V415.24C514.56 413.832 514.336 412.456 513.888 411.112C513.44 409.704 512.736 408.488 511.776 407.464C510.816 406.376 509.632 405.608 508.224 405.16C506.88 404.648 505.504 404.392 504.096 404.392C502.688 404.392 501.28 404.648 499.872 405.16C498.464 405.672 497.28 406.472 496.32 407.56C495.36 408.584 494.656 409.8 494.208 411.208C493.76 412.616 493.536 414.056 493.536 415.528C493.536 417.192 493.856 418.792 494.496 420.328C495.136 421.864 496.032 423.24 497.184 424.456C498.336 425.672 499.616 426.696 501.024 427.528C502.432 428.36 503.872 429.16 505.344 429.928C506.816 430.632 508.256 431.4 509.664 432.232C511.136 433.064 512.512 433.992 513.792 435.016C515.136 436.04 516.352 437.16 517.44 438.376C518.528 439.592 519.456 440.936 520.224 442.408C520.992 443.88 521.568 445.416 521.952 447.016C522.4 448.616 522.624 450.248 522.624 451.912C522.624 453.512 522.432 455.112 522.048 456.712C521.664 458.312 521.088 459.848 520.32 461.32C519.552 462.728 518.56 464.008 517.344 465.16C516.192 466.248 514.88 467.144 513.408 467.848C511.936 468.552 510.368 469.032 508.704 469.288C507.104 469.608 505.504 469.768 503.904 469.768ZM596.256 469V405.16H581.568V398.44H618.432V405.16H603.744V469H596.256ZM678.912 469V398.44H713.856V405.16H686.4V428.968H708.48V435.688H686.4V462.28H713.856V469H678.912ZM777.216 469V398.44H784.704V462.28H810.432V469H777.216ZM873.216 469V398.44H880.704V462.28H906.432V469H873.216ZM966.144 469V461.896C966.144 458.312 966.4 454.728 966.912 451.144C967.424 447.56 968.032 444.008 968.736 440.488C969.44 436.904 970.208 433.352 971.04 429.832C971.872 426.312 972.736 422.824 973.632 419.368C974.592 415.848 975.584 412.36 976.608 408.904C977.632 405.384 978.656 401.896 979.68 398.44H988.32C989.344 401.896 990.368 405.384 991.392 408.904C992.416 412.36 993.376 415.848 994.272 419.368C995.232 422.824 996.128 426.312 996.96 429.832C997.792 433.352 998.56 436.904 999.264 440.488C999.968 444.008 1000.58 447.56 1001.09 451.144C1001.6 454.728 1001.86 458.312 1001.86 461.896V469H994.368V461.896C994.368 460.04 994.304 458.184 994.176 456.328C994.048 454.472 993.856 452.616 993.6 450.76H974.4C974.144 452.616 973.952 454.472 973.824 456.328C973.696 458.184 973.632 460.04 973.632 461.896V469H966.144ZM975.36 444.04H992.64C991.616 437.512 990.336 431.016 988.8 424.552C987.264 418.088 985.664 411.656 984 405.256C982.336 411.656 980.736 418.088 979.2 424.552C977.664 431.016 976.384 437.512 975.36 444.04ZM1062.14 469V398.44H1080.58C1082.3 398.44 1084 398.632 1085.66 399.016C1087.39 399.4 1088.99 400.072 1090.46 401.032C1091.94 401.928 1093.22 403.08 1094.3 404.488C1095.39 405.832 1096.26 407.304 1096.9 408.904C1097.6 410.504 1098.05 412.168 1098.24 413.896C1098.5 415.624 1098.62 417.352 1098.62 419.08C1098.62 421.192 1098.43 423.304 1098.05 425.416C1097.66 427.528 1096.96 429.512 1095.94 431.368C1094.91 433.224 1093.57 434.824 1091.9 436.168C1090.24 437.512 1088.42 438.504 1086.43 439.144C1087.97 441.384 1089.44 443.688 1090.85 446.056C1092.26 448.36 1093.5 450.76 1094.59 453.256C1095.74 455.752 1096.7 458.312 1097.47 460.936C1098.24 463.56 1098.62 466.248 1098.62 469H1091.14C1091.14 466.312 1090.72 463.656 1089.89 461.032C1089.06 458.408 1088 455.912 1086.72 453.544C1085.5 451.112 1084.16 448.776 1082.69 446.536C1081.22 444.232 1079.68 441.992 1078.08 439.816H1069.63V469H1062.14ZM1080.58 433.096C1081.66 433.096 1082.75 432.936 1083.84 432.616C1084.93 432.296 1085.89 431.816 1086.72 431.176C1087.62 430.472 1088.35 429.64 1088.93 428.68C1089.5 427.72 1089.95 426.728 1090.27 425.704C1090.59 424.616 1090.82 423.528 1090.94 422.44C1091.07 421.352 1091.14 420.232 1091.14 419.08C1091.14 417.992 1091.07 416.904 1090.94 415.816C1090.82 414.728 1090.59 413.672 1090.27 412.648C1089.95 411.56 1089.5 410.536 1088.93 409.576C1088.35 408.616 1087.62 407.816 1086.72 407.176C1085.89 406.472 1084.93 405.96 1083.84 405.64C1082.75 405.32 1081.66 405.16 1080.58 405.16H1069.63V433.096H1080.58Z" fill="white"/>
<g id="Repeat group 1_inner" data-figma-trr="r6u3.7-0f">
<path d="M552.33 9.46545L642.301 99.4366L552.33 189.408L462.359 99.4366L552.33 9.46545Z" fill="url(#paint0_linear_1_70)"/>
</g>
<use xlink:href="#Repeat%20group%201_inner" transform="translate(650.574 -262.167) rotate(60)"/>
<use xlink:href="#Repeat%20group%201_inner" transform="translate(1202.9 170.163) rotate(120)"/>
<use xlink:href="#Repeat%20group%201_inner" transform="translate(1104.66 864.66) rotate(-180)"/>
<use xlink:href="#Repeat%20group%201_inner" transform="translate(454.086 1126.83) rotate(-120)"/>
<use xlink:href="#Repeat%20group%201_inner" transform="translate(-98.2437 694.497) rotate(-60)"/>
<defs>
<linearGradient id="paint0_linear_1_70" x1="552.33" y1="9.46545" x2="552.33" y2="189.408" gradientUnits="userSpaceOnUse">
<stop stop-color="white"/>
<stop offset="0.5" stop-color="white"/>
<stop offset="1" stop-color="#999999"/>
</linearGradient>
</defs>
</svg>
